<svg width="20" height="20" viewBox="0 0 20 20" fill="none" xmlns="http://www.w3.org/2000/svg">
<path d="M7.59131 12.4563L7.91109 12.4576C12.5555 12.4981 15.1833 13.4361 15.1833 15.9983C15.1833 18.5061 12.6648 19.4736 8.22345 19.5546L7.59131 19.5603C2.74697 19.5603 0.000305176 18.6394 0.000305176 16.0183C0.000305176 13.3937 2.7579 12.4563 7.59131 12.4563ZM7.59131 13.9563C3.57395 13.9563 1.50031 14.6612 1.50031 16.0183C1.50031 17.3667 3.56898 18.0603 7.59131 18.0603C11.6089 18.0603 13.6833 17.3552 13.6833 15.9983C13.6833 14.6505 11.6127 13.9563 7.59131 13.9563ZM15.587 11.7481C16.1676 11.7876 16.7448 11.8708 17.2994 11.9938C18.4875 12.2301 19.3708 12.6713 19.7755 13.5204C20.0743 14.1491 20.0743 14.8806 19.7755 15.5092C19.3731 16.3563 18.499 16.7942 17.3042 17.04C16.8985 17.1234 16.5019 16.8622 16.4185 16.4565C16.335 16.0507 16.5963 15.6542 17.002 15.5707C17.7708 15.4126 18.2826 15.1562 18.4207 14.8654C18.5259 14.6441 18.5259 14.3856 18.4211 14.165C18.282 13.8732 17.7676 13.6163 16.991 13.4616C16.4936 13.3515 15.9908 13.279 15.4852 13.2446C15.072 13.2165 14.7597 12.8587 14.7878 12.4455C14.8159 12.0322 15.1737 11.72 15.587 11.7481ZM7.59131 0.499756C10.4393 0.499756 12.7263 2.78636 12.7263 5.63376C12.7263 8.48197 10.4395 10.7688 7.59131 10.7688C4.74323 10.7688 2.45731 8.48211 2.45731 5.63376C2.45731 2.78622 4.74341 0.499756 7.59131 0.499756ZM14.02 1.56936C16.2549 1.56936 18.067 3.38183 18.067 5.61636C18.067 7.85157 16.2552 9.66336 14.02 9.66336C13.6058 9.66336 13.27 9.32757 13.27 8.91336C13.27 8.49914 13.6058 8.16336 14.02 8.16336C15.4268 8.16336 16.567 7.02314 16.567 5.61636C16.567 4.21019 15.4264 3.06936 14.02 3.06936C13.6058 3.06936 13.27 2.73357 13.27 2.31936C13.27 1.90514 13.6058 1.56936 14.02 1.56936ZM7.59131 1.99976C5.57189 1.99976 3.95731 3.6146 3.95731 5.63376C3.95731 7.65379 5.57176 9.26876 7.59131 9.26876C9.61109 9.26876 11.2263 7.65354 11.2263 5.63376C11.2263 3.61484 9.61096 1.99976 7.59131 1.99976Z" fill="#ffffff"/>
</svg>
